<?xml version="1.0" encoding="UTF-8"?>
<svg width="176px" height="186px" viewBox="0 0 176 186" version="1.1" xmlns="http://www.w3.org/2000/svg" xmlns:xlink="http://www.w3.org/1999/xlink">
    <!-- Generator: Sketch 62 (91390) - https://sketch.com -->
    <title>退出</title>
    <desc>Created with Sketch.</desc>
    <g id="页面-1" stroke="none" stroke-width="1" fill="none" fill-rule="evenodd">
        <g id="退出" transform="translate(0.695312, 0.031250)" fill="#FFFFFF" fill-rule="nonzero">
            <path d="M137.302089,27.0718281 C143.158918,31.2294094 148.358393,35.9418143 152.901313,41.2038467 C157.455225,46.4714752 161.352183,52.1584195 164.603379,58.2642797 C167.854774,64.3759359 170.3243,70.8387541 172.012156,77.6639268 C173.700011,84.4890994 174.549635,91.4052102 174.549635,98.428848 C174.549635,110.516253 172.238602,121.855765 167.627928,132.447783 C163.006062,143.039802 156.775286,152.272342 148.902224,160.134212 C141.040354,167.996081 131.819007,174.232253 121.215996,178.848723 C110.635369,183.464993 99.284465,185.77023 87.1970604,185.77023 C75.2455635,185.77023 63.9740057,183.464993 53.3705947,178.848723 C42.7899684,174.232253 33.5234512,167.996081 25.5936275,160.134212 C17.6638039,152.266746 11.4332283,143.039802 6.87931582,132.447783 C2.32520352,121.855765 0.0595396484,110.516253 0.0595396484,98.428848 C0.0595396484,91.541118 0.863794336,84.7781033 2.4838959,78.1511963 C4.11518984,71.5240895 6.42622305,65.2199637 9.41679531,59.2384191 C12.4073678,53.2628705 16.1004639,47.6722609 20.5184684,42.4725863 C24.936473,37.2727119 29.8757242,32.5942838 35.3360221,28.4367027 C38.2020789,26.3579121 41.2945822,25.5762422 44.6025395,26.0972889 C47.9102969,26.6183355 50.6064688,28.2384371 52.6908557,30.9685861 C54.7752424,33.6985352 55.5457201,36.7516652 55.0358658,40.1331725 C54.5148191,43.5146799 52.8949174,46.2448287 50.1533762,48.3234195 C41.9743215,54.299168 35.6983768,61.6455871 31.348326,70.3514846 C26.9982754,79.0629781 24.8119576,88.4200342 24.8119576,98.4286482 C24.8119576,107.004234 26.4318594,115.098146 29.6944473,122.699593 C32.9342506,130.306635 37.386432,136.933742 43.0391996,142.586509 C48.7033594,148.239277 55.3190738,152.725435 62.9317125,156.038988 C70.5329588,159.352542 78.6214748,161.006421 87.1970605,161.006421 C95.7838387,161.006421 103.872355,159.352542 111.473601,156.038988 C119.074847,152.725435 125.701954,148.239477 131.366114,142.586509 C137.018881,136.933742 141.493647,130.306635 144.812797,122.699593 C148.131947,115.098346 149.785825,107.004434 149.785825,98.4286482 C149.785825,88.2897225 147.441015,78.7060201 142.762188,69.6717455 C138.08376,60.6372709 131.524407,53.194717 123.073536,47.3492801 C120.218872,45.4008012 118.497039,42.73301 117.907839,39.3572986 C117.318838,35.9757912 118.00977,32.8547074 119.958248,29.9942469 C121.906727,27.2642979 124.568922,25.6102193 127.944834,25.0268148 C131.332137,24.4378141 134.447425,25.1233492 137.302089,27.0718281 L137.302089,27.0718281 L137.302089,27.0718281 L137.302089,27.0718281 Z M87.1970605,99.0122525 C83.8211494,99.0122525 80.932308,97.8114666 78.5195439,95.4040988 C76.1177723,93.0025271 74.9171861,90.1080895 74.9171861,86.7265822 L74.9171861,12.6450096 C74.9171861,9.26350215 76.1179721,6.34088379 78.5195437,3.8713582 C80.9323078,1.40203242 83.8211492,0.167069727 87.1970604,0.167069727 C90.7086795,0.167069727 93.6654748,1.40203242 96.0670465,3.8713582 C98.4800105,6.34088379 99.6807963,9.26350234 99.6807963,12.6450096 L99.6807963,86.7265822 C99.6807963,90.1080896 98.4800104,93.0025271 96.0670465,95.4040988 C93.6654748,97.8116664 90.7086797,99.0122525 87.1970605,99.0122525 L87.1970605,99.0122525 L87.1970605,99.0122525 L87.1970605,99.0122525 Z" id="形状"></path>
        </g>
    </g>
</svg>