<?xml version="1.0" encoding="UTF-8"?>
<svg width="12px" height="13px" viewBox="0 0 12 13" version="1.1" xmlns="http://www.w3.org/2000/svg" xmlns:xlink="http://www.w3.org/1999/xlink">
    <!-- Generator: Sketch 62 (91390) - https://sketch.com -->
    <title>图钉_浅紫_1</title>
    <desc>Created with Sketch.</desc>
    <g id="图钉_浅紫_1" stroke="none" stroke-width="1" fill="none" fill-rule="evenodd">
        <g id="编组" fill="#ABA8C8" fill-rule="nonzero">
            <path d="M11.953125,11.7586097 C11.9308036,11.6741071 11.9132653,11.6214923 11.903699,11.5927934 C11.8973214,11.5768495 11.8893495,11.5609056 11.8781888,11.5481505 L9.1151148,8.36734694 C9.08003827,8.32748724 9.08163265,8.26690051 9.11989796,8.2286352 L10.8609694,6.48756378 C10.9454719,6.40306122 10.8864796,6.25797194 10.7653061,6.25797194 L9.93941327,6.25797194 C9.90433673,6.25797194 9.8692602,6.24362245 9.84375,6.21811224 L5.49904337,1.87340561 C5.47512755,1.8494898 5.46237245,1.81919643 5.45918367,1.78571429 L5.35714286,0.12755102 C5.35076531,0.0111607143 5.2088648,-0.0414540816 5.12755102,0.0398596939 L0.0494260204,5.12117347 C-0.0318877551,5.20248724 0.0207270408,5.34279337 0.137117347,5.35076531 L1.84630102,5.4559949 L6.22767857,9.83737245 C6.25318878,9.86288265 6.26753827,9.8963648 6.26753827,9.93303571 L6.26753827,10.7589286 C6.26753827,10.8785077 6.41262755,10.9390944 6.4971301,10.8545918 L8.23820153,9.11352041 C8.27646684,9.0752551 8.33705357,9.07366071 8.37691327,9.10873724 L11.4971301,11.825574 C11.505102,11.8335459 11.5146684,11.8399235 11.5258291,11.8447066 C11.5513393,11.8574617 11.6055485,11.8829719 11.669324,11.8973214 L11.7889031,11.9292092 C11.8893495,11.9515306 11.981824,11.8590561 11.953125,11.7586097 Z" id="路径" transform="translate(5.984293, 5.966580) scale(-1, 1) translate(-5.984293, -5.966580) "></path>
        </g>
    </g>
</svg>