<?xml version="1.0" encoding="UTF-8"?>
<svg width="176px" height="176px" viewBox="0 0 176 176" version="1.1" xmlns="http://www.w3.org/2000/svg" xmlns:xlink="http://www.w3.org/1999/xlink">
    <!-- Generator: Sketch 62 (91390) - https://sketch.com -->
    <title>下载</title>
    <desc>Created with Sketch.</desc>
    <g id="页面-1" stroke="none" stroke-width="1" fill="none" fill-rule="evenodd">
        <g id="下载" transform="translate(0.500000, 0.304688)" fill="#FFFFFF" fill-rule="nonzero">
            <path d="M162.402344,150.136719 L12.5,150.136719 C5.64453125,150.136719 0.0390625,155.742188 0.0390625,162.597656 C0.0390625,169.453125 5.64453125,175.058594 12.5,175.058594 L162.402344,175.058594 C169.257812,175.058594 174.863281,169.453125 174.863281,162.597656 C174.863281,155.742188 169.257812,150.136719 162.402344,150.136719 Z M145.898438,62.5 L118.789062,62.5 L118.789062,11.875 C118.789062,5.37109375 113.515625,0.078125 106.992188,0.078125 L68.046875,0.078125 C61.5429687,0.078125 56.25,5.3515625 56.25,11.875 L56.25,62.5 L29.140625,62.5 C23.9257812,62.5 21.1914062,68.7109375 24.7460937,72.5585938 L83.125,135.742187 C85.4882812,138.300781 89.5507812,138.300781 91.9335938,135.742187 L150.292969,72.5585938 C153.828125,68.7109375 151.113281,62.5 145.898438,62.5 Z" id="形状"></path>
        </g>
    </g>
</svg>