<?xml version="1.0" encoding="UTF-8"?>
<svg width="16px" height="16px" viewBox="0 0 16 16" version="1.1" xmlns="http://www.w3.org/2000/svg" xmlns:xlink="http://www.w3.org/1999/xlink">
    <!-- Generator: Sketch 62 (91390) - https://sketch.com -->
    <title>密码</title>
    <desc>Created with Sketch.</desc>
    <g id="密码" stroke="none" stroke-width="1" fill="none" fill-rule="evenodd">
        <g id="密码、锁" transform="translate(3.000000, 2.000000)" fill="#999999" fill-rule="nonzero">
            <path d="M8.02348573,3.33538291 C8.02348573,1.93275825 6.88644507,0.795717593 5.48382041,0.795717593 C4.08119575,0.795717593 2.94415509,1.93275825 2.94415509,3.33538291 L2.94415509,3.8990162 L8.02348573,3.8990162 L8.02348573,3.33538291 Z M8.81920332,4.6947338 L2.1484375,4.6947338 L2.1484375,3.33538291 C2.1484375,1.49329668 3.64173418,0 5.48382041,0 C7.32590664,0 8.81920332,1.49329668 8.81920332,3.33538291 L8.81920332,4.6947338 Z" id="形状"></path>
            <path d="M1.19357639,4.70799576 C0.973838976,4.70799576 0.795717593,4.88611714 0.795717593,5.10585455 L0.795717593,11.1400463 C0.795717593,11.3597837 0.973838976,11.5379051 1.19357639,11.5379051 L9.76080247,11.5379051 C9.98053988,11.5379051 10.1586613,11.3597837 10.1586613,11.1400463 L10.1586613,5.10585455 C10.1586613,4.88611714 9.98053988,4.70799576 9.76080247,4.70799576 L1.19357639,4.70799576 Z M1.19357639,3.91227816 L9.76080247,3.91227816 C10.4200014,3.91227816 10.9543789,4.44665557 10.9543789,5.10585455 L10.9543789,11.1400463 C10.9543789,11.7992453 10.4200014,12.3336227 9.76080247,12.3336227 L1.19357639,12.3336227 C0.534377411,12.3336227 0,11.7992453 0,11.1400463 L0,5.10585455 C0,4.44665557 0.534377411,3.91227816 1.19357639,3.91227816 Z" id="形状"></path>
            <path d="M4.94671103,8.36730204 C4.63707079,8.18362389 4.4294946,7.84597439 4.4294946,7.45985243 C4.4294946,6.87755956 4.90152754,6.40552662 5.48382041,6.40552662 C6.06611328,6.40552662 6.53814622,6.87755956 6.53814622,7.45985243 C6.53814622,7.85147811 6.32462867,8.19321229 6.00766782,8.37503376 L6.00766782,9.30989583 C6.00766782,9.60286579 5.77015938,9.84037423 5.47718943,9.84037423 C5.18421947,9.84037423 4.94671103,9.60286579 4.94671103,9.30989583 L4.94671103,8.36730204 Z" id="路径"></path>
        </g>
    </g>
</svg>