<?xml version="1.0" encoding="UTF-8"?>
<svg width="16px" height="16px" viewBox="0 0 16 16" version="1.1" xmlns="http://www.w3.org/2000/svg" xmlns:xlink="http://www.w3.org/1999/xlink">
    <!-- Generator: Sketch 62 (91390) - https://sketch.com -->
    <title>验证码</title>
    <desc>Created with Sketch.</desc>
    <g id="验证码" stroke="none" stroke-width="1" fill="none" fill-rule="evenodd">
        <g id="验证码-" transform="translate(3.000000, 2.000000)" fill="#999999" fill-rule="nonzero">
            <path d="M5.4757306,12.7164556 C3.56366655,12.7164556 0.00621295836,9.86665016 0.00621295836,7.17116243 L0.00621295836,2.02626531 C0.00621295836,1.90145855 0.110730928,1.80062945 0.240148767,1.7980165 L0.55001381,1.79279061 C0.561848931,1.79279061 1.77656294,1.76835185 3.02878046,1.27250629 C4.31389039,0.765286726 5.14219531,0.180447204 5.15095637,0.17445279 L5.33340171,0.0450349508 C5.37487663,0.0159442722 5.42430208,0.000302292743 5.47496208,0.000302292743 C5.52527189,-1.94341144e-05 5.57443206,0.0153464774 5.61560024,0.0442664311 L5.80158074,0.17476019 C5.8100344,0.180754604 6.63910783,0.764979325 7.92268074,1.27281371 C9.17612787,1.76865926 10.3908419,1.79309802 10.4032918,1.79309801 L10.7106976,1.79832392 C10.8402692,1.80093686 10.9444797,1.90176596 10.9444797,2.02657271 L10.9470927,7.17146983 C10.9470927,9.86665015 7.38902428,12.716763 5.4752695,12.716763 L5.4757306,12.7164556 Z M10.1032638,2.62539921 C9.63308659,2.59004754 8.64385474,2.46862225 7.61619717,2.06177067 C6.56609896,1.64677285 5.7940493,1.17997715 5.4757306,0.973861558 C5.15833412,1.17920863 4.38582336,1.64615803 3.33603255,2.06177067 C2.3102194,2.46770003 1.3237542,2.58912532 0.847121517,2.62539921 L0.847121517,7.17116243 C0.847121517,9.28503839 3.94654046,11.8689378 5.4757306,11.8689378 C6.06840898,11.8689378 7.22333256,11.3880015 8.35858217,10.3319088 C9.4529468,9.31470306 10.1061841,8.13288147 10.1061841,7.17146983 L10.1032638,2.62539921 Z M5.03706252,8.03574123 C4.95904695,8.11572327 4.8519919,8.16074073 4.74026223,8.16054861 C4.62825054,8.16050423 4.5209199,8.11561246 4.44223231,8.03589494 L3.179563,6.76507937 C3.01548352,6.59894956 3.01548352,6.33176788 3.179563,6.16563807 C3.25812538,6.08598862 3.36533337,6.0411495 3.47720866,6.0411495 C3.58908396,6.0411495 3.69629195,6.08598862 3.77485433,6.16563807 L4.74026223,7.13657928 L7.17768279,4.68148288 C7.25610944,4.6016973 7.36329768,4.55675821 7.47517475,4.55675821 C7.58705182,4.55675821 7.69424006,4.6016973 7.77266671,4.68148288 C7.9378352,4.84716408 7.9378352,5.11524299 7.77266671,5.28092419 L5.03706252,8.03574123 Z" id="形状"></path>
        </g>
    </g>
</svg>