<?xml version="1.0" encoding="UTF-8"?>
<svg width="16px" height="16px" viewBox="0 0 16 16" version="1.1" xmlns="http://www.w3.org/2000/svg" xmlns:xlink="http://www.w3.org/1999/xlink">
    <!-- Generator: Sketch 62 (91390) - https://sketch.com -->
    <title>用户</title>
    <desc>Created with Sketch.</desc>
    <g id="用户" stroke="none" stroke-width="1" fill="none" fill-rule="evenodd">
        <g id="用户-(4)" transform="translate(2.000000, 2.000000)" fill="#999999" fill-rule="nonzero">
            <path d="M6.00421348,7.50234375 C3.90683374,7.50234375 2.25890098,5.85439782 2.25890098,3.75701808 C2.25890098,1.65963834 3.90682058,0.01171875 6.00421348,0.01171875 C8.10160639,0.01171875 9.74952598,1.65965151 9.74952598,3.75703125 C9.74952598,5.85441099 8.10160639,7.50234375 6.00421348,7.50234375 Z M6.00421348,6.75329178 C7.65215941,6.75329178 9.00047402,5.40495084 9.00047402,3.75701808 C9.00047402,2.10908532 7.65215941,0.760770716 6.00421348,0.760770716 C4.35626756,0.760770716 3.00795295,2.10908532 3.00795295,3.75701808 C3.00795295,5.40495084 4.35626756,6.75329178 6.00421348,6.75329178 L6.00421348,6.75329178 Z" id="形状"></path>
            <path d="M0.0116924157,12.7457865 C0.0116924157,9.44990783 2.7083348,6.75327862 6.00421348,6.75327862 C9.30009217,6.75327862 11.9967214,9.44990783 11.9967214,12.7457865 L11.2476562,12.7457865 C11.2476562,9.82443381 8.92556619,7.50234375 6.00421348,7.50234375 C3.08286078,7.50234375 0.760770716,9.82443381 0.760770716,12.7457865 L0.0116924157,12.7457865 L0.0116924157,12.7457865 Z" id="路径"></path>
        </g>
    </g>
</svg>