<?xml version="1.0" encoding="UTF-8"?>
<svg width="200px" height="197px" viewBox="0 0 200 197" version="1.1" xmlns="http://www.w3.org/2000/svg" xmlns:xlink="http://www.w3.org/1999/xlink">
    <!-- Generator: Sketch 62 (91390) - https://sketch.com -->
    <title>设置</title>
    <desc>Created with Sketch.</desc>
    <g id="页面-1" stroke="none" stroke-width="1" fill="none" fill-rule="evenodd">
        <g id="设置" fill="#FFFFFF" fill-rule="nonzero">
            <path d="M72.6824391,196.259176 C61.5167239,193.108074 50.9874307,188.030324 41.5695098,181.254971 L41.9922275,161.037249 C42.1734343,152.273985 36.0764876,144.628911 27.492557,142.855844 L7.66118945,138.755937 C3.16409517,128.061306 0.572073534,116.662564 0.00227265625,105.074885 L16.0655439,92.8024363 C23.033226,87.4805622 25.2104152,77.9441292 21.242699,70.1256789 L12.0838162,52.0806346 C17.6548258,41.9032612 24.9474081,32.7683099 33.6378719,25.0812482 L53.2510625,29.9902275 C61.7550149,32.1179543 70.5663622,27.8747458 74.2051316,19.8995477 L82.6049408,1.4908752 C88.3089128,0.499515341 94.087795,0.00222730525 99.8772756,0.00453724634 C105.763505,0.00453724634 111.531556,0.513624609 117.145065,1.4908752 L125.544874,19.8995477 C129.183643,27.8747458 137.994991,32.1179543 146.498943,29.9902275 L166.107588,25.0812482 C174.798052,32.7683099 182.090635,41.9032612 187.661644,52.0806346 L178.507307,70.1256789 C174.538608,77.9430746 176.713835,87.4792839 183.679916,92.8024363 L199.743188,105.074885 C199.173387,116.662564 196.581365,128.061306 192.084271,138.755937 L172.257449,142.851299 C163.673518,144.624366 157.576572,152.26944 157.757778,161.032704 L158.175951,181.254971 C148.757705,188.02872 138.22843,193.104923 127.063021,196.254631 L111.499739,183.30947 C104.761622,177.704533 94.9838384,177.704533 88.2457217,183.30947 L72.6824391,196.259176 L72.6824391,196.259176 Z M99.8727301,140.910434 C122.465684,140.910434 140.780891,122.595226 140.780891,100.002273 C140.780891,77.4093191 122.465684,59.0941115 99.8727301,59.0941115 C77.2797765,59.0941115 58.9645689,77.4093191 58.9645689,100.002273 C58.9645689,122.595226 77.2797765,140.910434 99.8727301,140.910434 Z" id="形状"></path>
        </g>
    </g>
</svg>